<svg width="350" height="80" viewBox="0 0 350 80" fill="none" xmlns="http://www.w3.org/2000/svg">
<path d="M47.015 30.91C50.513 30.91 53.2513 31.917 55.23 33.931C57.244 35.945 58.251 38.913 58.251 42.835V59H54.488V43.206C54.488 40.3087 53.7813 38.1003 52.368 36.581C50.99 35.0617 49.029 34.302 46.485 34.302C43.5877 34.302 41.3087 35.203 39.648 37.005C37.9873 38.7717 37.157 41.2273 37.157 44.372V59H33.394V43.206C33.394 40.3087 32.6873 38.1003 31.274 36.581C29.896 35.0617 27.9173 34.302 25.338 34.302C22.476 34.302 20.197 35.203 18.501 37.005C16.8403 38.7717 16.01 41.2273 16.01 44.372V59H12.247V31.122H15.851V36.21C16.8403 34.514 18.2183 33.2067 19.985 32.288C21.7517 31.3693 23.7833 30.91 26.08 30.91C28.412 30.91 30.426 31.4047 32.122 32.394C33.8533 33.3833 35.143 34.8497 35.991 36.793C37.0157 34.9557 38.482 33.5247 40.39 32.5C42.3333 31.44 44.5417 30.91 47.015 30.91ZM80.4845 55.926C82.2158 55.926 83.8058 55.6257 85.2545 55.025C86.7385 54.389 87.9928 53.4703 89.0175 52.269L91.1375 54.707C89.9008 56.191 88.3638 57.3217 86.5265 58.099C84.6892 58.8763 82.6575 59.265 80.4315 59.265C77.5695 59.265 75.0255 58.6643 72.7995 57.463C70.5735 56.2263 68.8422 54.5303 67.6055 52.375C66.3688 50.2197 65.7505 47.7817 65.7505 45.061C65.7505 42.3403 66.3335 39.9023 67.4995 37.747C68.7008 35.5917 70.3438 33.9133 72.4285 32.712C74.5132 31.5107 76.8805 30.91 79.5305 30.91C82.0038 30.91 84.2298 31.4753 86.2085 32.606C88.2225 33.7367 89.8125 35.309 90.9785 37.323C92.1798 39.337 92.8158 41.6337 92.8865 44.213L69.9905 48.665C70.6972 50.9263 71.9692 52.7107 73.8065 54.018C75.6792 55.29 77.9052 55.926 80.4845 55.926ZM79.5305 34.143C77.5872 34.143 75.8382 34.6023 74.2835 35.521C72.7642 36.4043 71.5628 37.6587 70.6795 39.284C69.8315 40.874 69.4075 42.7113 69.4075 44.796C69.4075 45.326 69.4252 45.7147 69.4605 45.962L89.1235 42.146C88.6995 39.814 87.6218 37.906 85.8905 36.422C84.1592 34.9027 82.0392 34.143 79.5305 34.143ZM114.75 30.91C118.248 30.91 121.021 31.9347 123.071 33.984C125.155 35.998 126.198 38.9483 126.198 42.835V59H122.435V43.206C122.435 40.3087 121.71 38.1003 120.262 36.581C118.813 35.0617 116.746 34.302 114.061 34.302C111.057 34.302 108.672 35.203 106.906 37.005C105.174 38.7717 104.309 41.2273 104.309 44.372V59H100.546V19.674H104.309V35.998C105.333 34.3727 106.747 33.1183 108.549 32.235C110.351 31.3517 112.418 30.91 114.75 30.91ZM161.958 19.674V59H158.354V53.488C157.223 55.3607 155.721 56.7917 153.849 57.781C152.011 58.7703 149.927 59.265 147.595 59.265C144.98 59.265 142.613 58.6643 140.493 57.463C138.373 56.2617 136.712 54.5833 135.511 52.428C134.309 50.2727 133.709 47.817 133.709 45.061C133.709 42.305 134.309 39.8493 135.511 37.694C136.712 35.5387 138.373 33.878 140.493 32.712C142.613 31.5107 144.98 30.91 147.595 30.91C149.856 30.91 151.888 31.387 153.69 32.341C155.527 33.2597 157.029 34.62 158.195 36.422V19.674H161.958ZM147.913 55.926C149.856 55.926 151.605 55.4843 153.16 54.601C154.75 53.6823 155.986 52.3927 156.87 50.732C157.788 49.0713 158.248 47.181 158.248 45.061C158.248 42.941 157.788 41.0507 156.87 39.39C155.986 37.7293 154.75 36.4573 153.16 35.574C151.605 34.6553 149.856 34.196 147.913 34.196C145.934 34.196 144.15 34.6553 142.56 35.574C141.005 36.4573 139.768 37.7293 138.85 39.39C137.966 41.0507 137.525 42.941 137.525 45.061C137.525 47.181 137.966 49.0713 138.85 50.732C139.768 52.3927 141.005 53.6823 142.56 54.601C144.15 55.4843 145.934 55.926 147.913 55.926ZM172.437 31.122H176.2V59H172.437V31.122ZM174.345 25.027C173.568 25.027 172.914 24.762 172.384 24.232C171.854 23.702 171.589 23.066 171.589 22.324C171.589 21.6173 171.854 20.999 172.384 20.469C172.914 19.939 173.568 19.674 174.345 19.674C175.123 19.674 175.776 19.939 176.306 20.469C176.836 20.9637 177.101 21.5643 177.101 22.271C177.101 23.0483 176.836 23.702 176.306 24.232C175.776 24.762 175.123 25.027 174.345 25.027ZM195.257 22.589C193.631 22.589 192.395 23.0307 191.547 23.914C190.734 24.7973 190.328 26.1047 190.328 27.836V31.122H198.914V34.302H190.434V59H186.671V27.677C186.671 25.133 187.395 23.119 188.844 21.635C190.328 20.151 192.412 19.409 195.098 19.409C196.158 19.409 197.182 19.568 198.172 19.886C199.161 20.1687 199.991 20.5927 200.663 21.158L199.391 23.967C198.295 23.0483 196.917 22.589 195.257 22.589ZM208.242 31.122H212.005V59H208.242V31.122ZM210.15 25.027C209.372 25.027 208.719 24.762 208.189 24.232C207.659 23.702 207.394 23.066 207.394 22.324C207.394 21.6173 207.659 20.999 208.189 20.469C208.719 19.939 209.372 19.674 210.15 19.674C210.927 19.674 211.581 19.939 212.111 20.469C212.641 20.9637 212.906 21.5643 212.906 22.271C212.906 23.0483 212.641 23.702 212.111 24.232C211.581 24.762 210.927 25.027 210.15 25.027ZM230.331 59.265C227.823 59.265 225.879 58.5583 224.501 57.145C223.159 55.7317 222.487 53.7707 222.487 51.262V19.674H226.25V50.944C226.25 52.6047 226.639 53.8767 227.416 54.76C228.194 55.608 229.36 56.032 230.914 56.032C231.904 56.032 232.752 55.873 233.458 55.555L233.723 58.682C232.628 59.0707 231.497 59.265 230.331 59.265ZM253.206 30.91C255.82 30.91 258.188 31.5107 260.308 32.712C262.428 33.878 264.088 35.5387 265.29 37.694C266.491 39.8493 267.092 42.305 267.092 45.061C267.092 47.817 266.491 50.2727 265.29 52.428C264.088 54.5833 262.428 56.2617 260.308 57.463C258.188 58.6643 255.82 59.265 253.206 59.265C250.874 59.265 248.771 58.7703 246.899 57.781C245.061 56.7917 243.577 55.3607 242.447 53.488V59H238.843V19.674H242.606V36.422C243.772 34.62 245.256 33.2597 247.058 32.341C248.895 31.387 250.944 30.91 253.206 30.91ZM252.941 55.926C254.884 55.926 256.651 55.4843 258.241 54.601C259.831 53.6823 261.067 52.3927 261.951 50.732C262.869 49.0713 263.329 47.181 263.329 45.061C263.329 42.941 262.869 41.0507 261.951 39.39C261.067 37.7293 259.831 36.4573 258.241 35.574C256.651 34.6553 254.884 34.196 252.941 34.196C250.962 34.196 249.178 34.6553 247.588 35.574C246.033 36.4573 244.796 37.7293 243.878 39.39C242.994 41.0507 242.553 42.941 242.553 45.061C242.553 47.181 242.994 49.0713 243.878 50.732C244.796 52.3927 246.033 53.6823 247.588 54.601C249.178 55.4843 250.962 55.926 252.941 55.926ZM300.203 31.122V59H296.599V53.488C295.468 55.3607 293.966 56.7917 292.094 57.781C290.256 58.7703 288.172 59.265 285.84 59.265C283.225 59.265 280.858 58.6643 278.738 57.463C276.618 56.2617 274.957 54.5833 273.756 52.428C272.554 50.2727 271.954 47.817 271.954 45.061C271.954 42.305 272.554 39.8493 273.756 37.694C274.957 35.5387 276.618 33.878 278.738 32.712C280.858 31.5107 283.225 30.91 285.84 30.91C288.101 30.91 290.133 31.387 291.935 32.341C293.772 33.2597 295.274 34.62 296.44 36.422V31.122H300.203ZM286.158 55.926C288.101 55.926 289.85 55.4843 291.405 54.601C292.995 53.6823 294.231 52.3927 295.115 50.732C296.033 49.0713 296.493 47.181 296.493 45.061C296.493 42.941 296.033 41.0507 295.115 39.39C294.231 37.7293 292.995 36.4573 291.405 35.574C289.85 34.6553 288.101 34.196 286.158 34.196C284.179 34.196 282.395 34.6553 280.805 35.574C279.25 36.4573 278.013 37.7293 277.095 39.39C276.211 41.0507 275.77 42.941 275.77 45.061C275.77 47.181 276.211 49.0713 277.095 50.732C278.013 52.3927 279.25 53.6823 280.805 54.601C282.395 55.4843 284.179 55.926 286.158 55.926ZM324.887 30.91C328.385 30.91 331.158 31.9347 333.208 33.984C335.292 35.998 336.335 38.9483 336.335 42.835V59H332.572V43.206C332.572 40.3087 331.847 38.1003 330.399 36.581C328.95 35.0617 326.883 34.302 324.198 34.302C321.194 34.302 318.809 35.203 317.043 37.005C315.311 38.7717 314.446 41.2273 314.446 44.372V59H310.683V31.122H314.287V36.263C315.311 34.567 316.725 33.2597 318.527 32.341C320.364 31.387 322.484 30.91 324.887 30.91Z" fill="#009689"/>
</svg>
